<svg height="277" width="294" viewBox="0 0 294 277.018" xmlns="http://www.w3.org/2000/svg" xmlns:xlink="http://www.w3.org/1999/xlink">
    <defs/>
    <g transform="translate(4.76,1.00)" id="chart1">
        <g transform="translate(0.00,250.02)" id="group2">
            <g transform="translate(69.28,5.50)" id="shape3">
                <path d="M15.0,7.0C15.0,10.9,11.9,14.0,8.0,14.0C4.1,14.0,1.0,10.9,1.0,7.0C1.0,3.1,4.1,.0,8.0,.0C11.9,.0,15.0,3.1,15.0,7.0z" stroke-width="1" fill-rule="nonzero" fill="#4155c6" stroke="#4155c6"/>
                <rect height="15.0" width="28.1" x="26.0" fill="#ffffff" y="-0.5"/>
                <text xml:space="preserve" style="fill:#000000;font-family:Arial;font-size:10.00pt">
                    <tspan x="26.0" y="12.5">Male</tspan>
                </text>
            </g>
            <g transform="translate(141.42,5.50)" id="shape4">
                <path d="M15.0,7.0C15.0,10.9,11.9,14.0,8.0,14.0C4.1,14.0,1.0,10.9,1.0,7.0C1.0,3.1,4.1,.0,8.0,.0C11.9,.0,15.0,3.1,15.0,7.0z" stroke-width="1" fill-rule="nonzero" fill="#ff7e79" stroke="#ff7e79"/>
                <rect height="15.0" width="43.3" x="26.0" fill="#ffffff" y="-0.5"/>
                <text xml:space="preserve" style="fill:#000000;font-family:Arial;font-size:10.00pt">
                    <tspan x="26.0" y="12.5">Female</tspan>
                </text>
            </g>
        </g>
        <g id="group5">
            <g transform="translate(59.66,194.02)" id="shape6">
                <path d="M.0,5.0L207.5,5.0M.0,5.0L.0,10.0M41.5,5.0L41.5,10.0M83.0,5.0L83.0,10.0M124.5,5.0L124.5,10.0M166.0,5.0L166.0,10.0M207.5,5.0L207.5,10.0" stroke-width="1" stroke="#000000" fill="none"/>
                <rect height="15.0" width="37.5" x="86.0" fill="#ffffff" y="37.0"/>
                <text xml:space="preserve" style="fill:#000000;font-family:Arial;font-size:10.00pt">
                    <tspan x="86.0" y="50.0">Height</tspan>
                </text>
                <rect height="15.0" width="7.2" x="-2.6" fill="#ffffff" y="14.0"/>
                <text xml:space="preserve" style="fill:#000000;font-family:Arial;font-size:10.00pt">
                    <tspan x="-2.6" y="27.0">0</tspan>
                </text>
                <rect height="15.0" width="14.4" x="35.3" fill="#ffffff" y="14.0"/>
                <text xml:space="preserve" style="fill:#000000;font-family:Arial;font-size:10.00pt">
                    <tspan x="35.3" y="27.0">40</tspan>
                </text>
                <rect height="15.0" width="14.4" x="76.8" fill="#ffffff" y="14.0"/>
                <text xml:space="preserve" style="fill:#000000;font-family:Arial;font-size:10.00pt">
                    <tspan x="76.8" y="27.0">80</tspan>
                </text>
                <rect height="15.0" width="21.7" x="114.7" fill="#ffffff" y="14.0"/>
                <text xml:space="preserve" style="fill:#000000;font-family:Arial;font-size:10.00pt">
                    <tspan x="114.7" y="27.0">120</tspan>
                </text>
                <rect height="15.0" width="21.7" x="156.2" fill="#ffffff" y="14.0"/>
                <text xml:space="preserve" style="fill:#000000;font-family:Arial;font-size:10.00pt">
                    <tspan x="156.2" y="27.0">160</tspan>
                </text>
                <rect height="15.0" width="21.7" x="197.7" fill="#ffffff" y="14.0"/>
                <text xml:space="preserve" style="fill:#000000;font-family:Arial;font-size:10.00pt">
                    <tspan x="197.7" y="27.0">200</tspan>
                </text>
                <path d="M41.5,-182.5L41.5,5.0M83.0,-182.5L83.0,5.0M124.5,-182.5L124.5,5.0M166.0,-182.5L166.0,5.0M207.5,-182.5L207.5,5.0" stroke-width="1" stroke="#dcdcdc" fill="none" id="shape7"/>
            </g>
            <g transform="translate(54.66,11.50)" id="shape8">
                <path d="M5.0,187.5L5.0,.0M5.0,187.5L.0,187.5M5.0,150.0L.0,150.0M5.0,112.5L.0,112.5M5.0,75.0L.0,75.0M5.0,37.5L.0,37.5M5.0,.0L.0,.0" stroke-width="1" stroke="#000000" fill="none"/>
                <rect transform="matrix(0.00,-1.00,1.00,0.00,-141.9,45.6)" height="15.0" width="40.2" x="-67.2" fill="#ffffff" y="86.3"/>
                <text transform="matrix(0.00,-1.00,1.00,0.00,-141.9,45.6)" xml:space="preserve" style="fill:#000000;font-family:Arial;font-size:10.00pt">
                    <tspan x="-67.2" y="99.3">Weight</tspan>
                </text>
                <rect height="15.0" width="7.2" x="-16.2" fill="#ffffff" y="180.0"/>
                <text xml:space="preserve" style="fill:#000000;font-family:Arial;font-size:10.00pt">
                    <tspan x="-16.2" y="193.0">0</tspan>
                </text>
                <rect height="15.0" width="14.4" x="-23.4" fill="#ffffff" y="142.5"/>
                <text xml:space="preserve" style="fill:#000000;font-family:Arial;font-size:10.00pt">
                    <tspan x="-23.4" y="155.5">20</tspan>
                </text>
                <rect height="15.0" width="14.4" x="-23.4" fill="#ffffff" y="105.0"/>
                <text xml:space="preserve" style="fill:#000000;font-family:Arial;font-size:10.00pt">
                    <tspan x="-23.4" y="118.0">40</tspan>
                </text>
                <rect height="15.0" width="14.4" x="-23.4" fill="#ffffff" y="67.5"/>
                <text xml:space="preserve" style="fill:#000000;font-family:Arial;font-size:10.00pt">
                    <tspan x="-23.4" y="80.5">60</tspan>
                </text>
                <rect height="15.0" width="14.4" x="-23.4" fill="#ffffff" y="30.0"/>
                <text xml:space="preserve" style="fill:#000000;font-family:Arial;font-size:10.00pt">
                    <tspan x="-23.4" y="43.0">80</tspan>
                </text>
                <rect height="15.0" width="21.7" x="-30.7" fill="#ffffff" y="-7.5"/>
                <text xml:space="preserve" style="fill:#000000;font-family:Arial;font-size:10.00pt">
                    <tspan x="-30.7" y="5.5">100</tspan>
                </text>
                <path d="M5.0,150.0L212.5,150.0M5.0,112.5L212.5,112.5M5.0,75.0L212.5,75.0M5.0,37.5L212.5,37.5M5.0,.0L212.5,.0" stroke-width="1" stroke="#dcdcdc" fill="none" id="shape9"/>
            </g>
        </g>
        <g transform="translate(59.66,11.50)" id="group10">
            <g id="group11">
                <path d="M164.1,75.0C164.1,72.2,166.4,70.0,169.1,70.0C171.9,70.0,174.1,72.2,174.1,75.0C174.1,77.8,171.9,80.0,169.1,80.0C166.4,80.0,164.1,77.8,164.1,75.0z" fill-opacity="0.80" stroke-width="1" fill-rule="nonzero" fill="#4155c6" stroke="#4155c6" id="shape12" stroke-opacity="0.80"/>
                <path d="M119.5,150.0C119.5,147.3,121.7,145.0,124.5,145.0C127.3,145.0,129.5,147.3,129.5,150.0C129.5,152.8,127.3,155.0,124.5,155.0C121.7,155.0,119.5,152.8,119.5,150.0z" fill-opacity="0.80" stroke-width="1" fill-rule="nonzero" fill="#4155c6" stroke="#4155c6" id="shape13" stroke-opacity="0.80"/>
                <path d="M119.5,93.8C119.5,91.0,121.7,88.8,124.5,88.8C127.3,88.8,129.5,91.0,129.5,93.8C129.5,96.5,127.3,98.8,124.5,98.8C121.7,98.8,119.5,96.5,119.5,93.8z" fill-opacity="0.80" stroke-width="1" fill-rule="nonzero" fill="#4155c6" stroke="#4155c6" id="shape14" stroke-opacity="0.80"/>
                <path d="M129.9,37.5C129.9,34.7,132.1,32.5,134.9,32.5C137.6,32.5,139.9,34.7,139.9,37.5C139.9,40.3,137.6,42.5,134.9,42.5C132.1,42.5,129.9,40.3,129.9,37.5z" fill-opacity="0.80" stroke-width="1" fill-rule="nonzero" fill="#4155c6" stroke="#4155c6" id="shape15" stroke-opacity="0.80"/>
                <path d="M52.1,56.3C52.1,53.5,54.3,51.3,57.1,51.3C59.8,51.3,62.1,53.5,62.1,56.3C62.1,59.0,59.8,61.3,57.1,61.3C54.3,61.3,52.1,59.0,52.1,56.3z" fill-opacity="0.80" stroke-width="1" fill-rule="nonzero" fill="#4155c6" stroke="#4155c6" id="shape16" stroke-opacity="0.80"/>
                <path d="M6.4,93.8C6.4,91.0,8.7,88.8,11.4,88.8C14.2,88.8,16.4,91.0,16.4,93.8C16.4,96.5,14.2,98.8,11.4,98.8C8.7,98.8,6.4,96.5,6.4,93.8z" fill-opacity="0.80" stroke-width="1" fill-rule="nonzero" fill="#4155c6" stroke="#4155c6" id="shape17" stroke-opacity="0.80"/>
            </g>
            <g id="group18">
                <path d="M153.7,108.8C153.7,106.0,156.0,103.8,158.7,103.8C161.5,103.8,163.7,106.0,163.7,108.8C163.7,111.5,161.5,113.8,158.7,113.8C156.0,113.8,153.7,111.5,153.7,108.8z" fill-opacity="0.80" stroke-width="1" fill-rule="nonzero" fill="#ff7e79" stroke="#ff7e79" id="shape19" stroke-opacity="0.80"/>
                <path d="M161.0,168.8C161.0,166.0,163.3,163.8,166.0,163.8C168.8,163.8,171.0,166.0,171.0,168.8C171.0,171.5,168.8,173.8,166.0,173.8C163.3,173.8,161.0,171.5,161.0,168.8z" fill-opacity="0.80" stroke-width="1" fill-rule="nonzero" fill="#ff7e79" stroke="#ff7e79" id="shape20" stroke-opacity="0.80"/>
                <path d="M36.5,37.5C36.5,34.7,38.7,32.5,41.5,32.5C44.3,32.5,46.5,34.7,46.5,37.5C46.5,40.3,44.3,42.5,41.5,42.5C38.7,42.5,36.5,40.3,36.5,37.5z" fill-opacity="0.80" stroke-width="1" fill-rule="nonzero" fill="#ff7e79" stroke="#ff7e79" id="shape21" stroke-opacity="0.80"/>
                <path d="M119.5,18.8C119.5,16.0,121.7,13.8,124.5,13.8C127.3,13.8,129.5,16.0,129.5,18.8C129.5,21.5,127.3,23.8,124.5,23.8C121.7,23.8,119.5,21.5,119.5,18.8z" fill-opacity="0.80" stroke-width="1" fill-rule="nonzero" fill="#ff7e79" stroke="#ff7e79" id="shape22" stroke-opacity="0.80"/>
                <path d="M94.6,163.1C94.6,160.4,96.8,158.1,99.6,158.1C102.4,158.1,104.6,160.4,104.6,163.1C104.6,165.9,102.4,168.1,99.6,168.1C96.8,168.1,94.6,165.9,94.6,163.1z" fill-opacity="0.80" stroke-width="1" fill-rule="nonzero" fill="#ff7e79" stroke="#ff7e79" id="shape23" stroke-opacity="0.80"/>
                <path d="M81.1,108.8C81.1,106.0,83.4,103.8,86.1,103.8C88.9,103.8,91.1,106.0,91.1,108.8C91.1,111.5,88.9,113.8,86.1,113.8C83.4,113.8,81.1,111.5,81.1,108.8z" fill-opacity="0.80" stroke-width="1" fill-rule="nonzero" fill="#ff7e79" stroke="#ff7e79" id="shape24" stroke-opacity="0.80"/>
            </g>
        </g>
    </g>
</svg>
