<svg height="279" width="313" viewBox="0 0 313 279" xmlns="http://www.w3.org/2000/svg" xmlns:xlink="http://www.w3.org/1999/xlink">
    <defs/>
    <g transform="translate(5.00,13.00)" id="chart1">
        <g transform="translate(0.00,240.00)" id="group2">
            <g transform="translate(109.21,5.50)" id="shape3">
                <path d="M20.5,7.0C20.5,10.9,17.4,14.0,13.5,14.0C9.6,14.0,6.5,10.9,6.5,7.0C6.5,3.1,9.6,.0,13.5,.0C17.4,.0,20.5,3.1,20.5,7.0z" fill-rule="nonzero" fill="#4155c6"/>
                <path d="M20.5,7.0C20.5,10.9,17.4,14.0,13.5,14.0C9.6,14.0,6.5,10.9,6.5,7.0C6.5,3.1,9.6,.0,13.5,.0C17.4,.0,20.5,3.1,20.5,7.0zM.0,7.0L28.0,7.0" stroke-width="1" stroke="#4155c6" fill="none"/>
                <rect height="15.0" width="44.0" x="37.0" fill="#ffffff" y="-0.5"/>
                <text xml:space="preserve" style="fill:#000000;font-family:Arial;font-size:10.00pt">
                    <tspan x="37.0" y="12.5">Series2</tspan>
                </text>
            </g>
        </g>
        <g id="group4">
            <g transform="translate(36.66,185.67)" id="shape5">
                <path d="M.0,5.0L265.8,5.0M.0,5.0L.0,10.0M33.2,5.0L33.2,10.0M66.4,5.0L66.4,10.0M99.7,5.0L99.7,10.0M132.9,5.0L132.9,10.0M166.1,5.0L166.1,10.0M199.3,5.0L199.3,10.0M232.6,5.0L232.6,10.0" stroke-width="1" stroke="#000000" fill="none"/>
                <rect transform="matrix(0.71,-0.71,0.71,0.71,-24.4,5.5)" height="15.0" width="52.7" x="-30.9" fill="#ffffff" y="24.7"/>
                <text transform="matrix(0.71,-0.71,0.71,0.71,-24.4,5.5)" xml:space="preserve" style="fill:#000000;font-family:Arial;font-size:10.00pt">
                    <tspan x="-30.9" y="37.7">Category</tspan>
                </text>
                <rect transform="matrix(0.71,-0.71,0.71,0.71,-14.6,29.0)" height="15.0" width="52.7" x="2.3" fill="#ffffff" y="24.7"/>
                <text transform="matrix(0.71,-0.71,0.71,0.71,-14.6,29.0)" xml:space="preserve" style="fill:#000000;font-family:Arial;font-size:10.00pt">
                    <tspan x="2.3" y="37.7">Category</tspan>
                </text>
                <rect transform="matrix(0.71,-0.71,0.71,0.71,-4.9,52.5)" height="15.0" width="52.7" x="35.5" fill="#ffffff" y="24.7"/>
                <text transform="matrix(0.71,-0.71,0.71,0.71,-4.9,52.5)" xml:space="preserve" style="fill:#000000;font-family:Arial;font-size:10.00pt">
                    <tspan x="35.5" y="37.7">Category</tspan>
                </text>
                <rect transform="matrix(0.71,-0.71,0.71,0.71,4.8,76.0)" height="15.0" width="52.7" x="68.8" fill="#ffffff" y="24.7"/>
                <text transform="matrix(0.71,-0.71,0.71,0.71,4.8,76.0)" xml:space="preserve" style="fill:#000000;font-family:Arial;font-size:10.00pt">
                    <tspan x="68.8" y="37.7">Category</tspan>
                </text>
                <rect transform="matrix(0.71,-0.71,0.71,0.71,14.6,99.5)" height="15.0" width="52.7" x="102.0" fill="#ffffff" y="24.7"/>
                <text transform="matrix(0.71,-0.71,0.71,0.71,14.6,99.5)" xml:space="preserve" style="fill:#000000;font-family:Arial;font-size:10.00pt">
                    <tspan x="102.0" y="37.7">Category</tspan>
                </text>
                <rect transform="matrix(0.71,-0.71,0.71,0.71,24.3,122.9)" height="15.0" width="52.7" x="135.2" fill="#ffffff" y="24.7"/>
                <text transform="matrix(0.71,-0.71,0.71,0.71,24.3,122.9)" xml:space="preserve" style="fill:#000000;font-family:Arial;font-size:10.00pt">
                    <tspan x="135.2" y="37.7">Category</tspan>
                </text>
                <rect transform="matrix(0.71,-0.71,0.71,0.71,34.0,146.4)" height="15.0" width="52.7" x="168.4" fill="#ffffff" y="24.7"/>
                <text transform="matrix(0.71,-0.71,0.71,0.71,34.0,146.4)" xml:space="preserve" style="fill:#000000;font-family:Arial;font-size:10.00pt">
                    <tspan x="168.4" y="37.7">Category</tspan>
                </text>
                <rect transform="matrix(0.71,-0.71,0.71,0.71,43.7,169.9)" height="15.0" width="52.7" x="201.7" fill="#ffffff" y="24.7"/>
                <text transform="matrix(0.71,-0.71,0.71,0.71,43.7,169.9)" xml:space="preserve" style="fill:#000000;font-family:Arial;font-size:10.00pt">
                    <tspan x="201.7" y="37.7">Category</tspan>
                </text>
            </g>
            <g transform="translate(31.66,11.50)" id="shape7">
                <path d="M5.0,179.2L5.0,.0M5.0,179.2L.0,179.2M5.0,149.3L.0,149.3M5.0,119.4L.0,119.4M5.0,89.6L.0,89.6M5.0,59.7L.0,59.7M5.0,29.9L.0,29.9M5.0,.0L.0,.0" stroke-width="1" stroke="#000000" fill="none"/>
                <rect height="15.0" width="7.2" x="-16.2" fill="#ffffff" y="171.7"/>
                <text xml:space="preserve" style="fill:#000000;font-family:Arial;font-size:10.00pt">
                    <tspan x="-16.2" y="184.7">0</tspan>
                </text>
                <rect height="15.0" width="14.4" x="-23.4" fill="#ffffff" y="141.8"/>
                <text xml:space="preserve" style="fill:#000000;font-family:Arial;font-size:10.00pt">
                    <tspan x="-23.4" y="154.8">20</tspan>
                </text>
                <rect height="15.0" width="14.4" x="-23.4" fill="#ffffff" y="111.9"/>
                <text xml:space="preserve" style="fill:#000000;font-family:Arial;font-size:10.00pt">
                    <tspan x="-23.4" y="124.9">40</tspan>
                </text>
                <rect height="15.0" width="14.4" x="-23.4" fill="#ffffff" y="82.1"/>
                <text xml:space="preserve" style="fill:#000000;font-family:Arial;font-size:10.00pt">
                    <tspan x="-23.4" y="95.1">60</tspan>
                </text>
                <rect height="15.0" width="14.4" x="-23.4" fill="#ffffff" y="52.2"/>
                <text xml:space="preserve" style="fill:#000000;font-family:Arial;font-size:10.00pt">
                    <tspan x="-23.4" y="65.2">80</tspan>
                </text>
                <rect height="15.0" width="21.7" x="-30.7" fill="#ffffff" y="22.4"/>
                <text xml:space="preserve" style="fill:#000000;font-family:Arial;font-size:10.00pt">
                    <tspan x="-30.7" y="35.4">100</tspan>
                </text>
                <rect height="15.0" width="21.7" x="-30.7" fill="#ffffff" y="-7.5"/>
                <text xml:space="preserve" style="fill:#000000;font-family:Arial;font-size:10.00pt">
                    <tspan x="-30.7" y="5.5">120</tspan>
                </text>
                <path d="M5.0,149.3L270.8,149.3M5.0,119.4L270.8,119.4M5.0,89.6L270.8,89.6M5.0,59.7L270.8,59.7M5.0,29.9L270.8,29.9M5.0,.0L270.8,.0" stroke-width="1" stroke="#dcdcdc" fill="none" id="shape8"/>
            </g>
        </g>
        <g transform="translate(36.66,11.50)" id="group9">
            <path d="M16.6,59.7L49.8,59.7L83.1,44.8L116.3,59.7L149.5,59.7L182.7,44.8L215.9,.0L249.2,59.7L249.2,179.2L215.9,179.2L182.7,179.2L149.5,179.2L116.3,179.2L83.1,179.2L49.8,179.2L16.6,179.2L16.6,59.7z" fill-opacity="0.59" fill-rule="nonzero" fill="#4155c6" id="shape10"/>
            <g id="group11">
                <path d="M16.6,59.7L49.8,59.7L83.1,44.8L116.3,59.7L149.5,59.7L182.7,44.8L215.9,.0L249.2,59.7" stroke-width="2" stroke="#4155c6" fill="none" id="shape12"/>
                <g id="shape13">
                    <path d="M13.6,59.7C13.6,58.1,15.0,56.7,16.6,56.7C18.3,56.7,19.6,58.1,19.6,59.7C19.6,61.4,18.3,62.7,16.6,62.7C15.0,62.7,13.6,61.4,13.6,59.7z" stroke-width="1" fill-rule="nonzero" fill="#4155c6" stroke="#4155c6"/>
                    <text stroke-width="3" xml:space="preserve" stroke="#4155c6" style="fill:#ffffff;font-family:Arial;font-size:10.00pt">
                        <tspan x="10.4" y="52.2">80</tspan>
                    </text>
                    <text xml:space="preserve" style="fill:#ffffff;font-family:Arial;font-size:10.00pt">
                        <tspan x="10.4" y="52.2">80</tspan>
                    </text>
                </g>
                <g id="shape14">
                    <path d="M46.8,59.7C46.8,58.1,48.2,56.7,49.8,56.7C51.5,56.7,52.8,58.1,52.8,59.7C52.8,61.4,51.5,62.7,49.8,62.7C48.2,62.7,46.8,61.4,46.8,59.7z" stroke-width="1" fill-rule="nonzero" fill="#4155c6" stroke="#4155c6"/>
                    <text stroke-width="3" xml:space="preserve" stroke="#4155c6" style="fill:#ffffff;font-family:Arial;font-size:10.00pt">
                        <tspan x="43.6" y="52.2">80</tspan>
                    </text>
                    <text xml:space="preserve" style="fill:#ffffff;font-family:Arial;font-size:10.00pt">
                        <tspan x="43.6" y="52.2">80</tspan>
                    </text>
                </g>
                <g id="shape15">
                    <path d="M80.1,44.8C80.1,43.1,81.4,41.8,83.1,41.8C84.7,41.8,86.1,43.1,86.1,44.8C86.1,46.5,84.7,47.8,83.1,47.8C81.4,47.8,80.1,46.5,80.1,44.8z" stroke-width="1" fill-rule="nonzero" fill="#4155c6" stroke="#4155c6"/>
                    <text stroke-width="3" xml:space="preserve" stroke="#4155c6" style="fill:#ffffff;font-family:Arial;font-size:10.00pt">
                        <tspan x="76.8" y="37.3">90</tspan>
                    </text>
                    <text xml:space="preserve" style="fill:#ffffff;font-family:Arial;font-size:10.00pt">
                        <tspan x="76.8" y="37.3">90</tspan>
                    </text>
                </g>
                <g id="shape16">
                    <path d="M113.3,59.7C113.3,58.1,114.6,56.7,116.3,56.7C117.9,56.7,119.3,58.1,119.3,59.7C119.3,61.4,117.9,62.7,116.3,62.7C114.6,62.7,113.3,61.4,113.3,59.7z" stroke-width="1" fill-rule="nonzero" fill="#4155c6" stroke="#4155c6"/>
                    <text stroke-width="3" xml:space="preserve" stroke="#4155c6" style="fill:#ffffff;font-family:Arial;font-size:10.00pt">
                        <tspan x="110.1" y="52.2">80</tspan>
                    </text>
                    <text xml:space="preserve" style="fill:#ffffff;font-family:Arial;font-size:10.00pt">
                        <tspan x="110.1" y="52.2">80</tspan>
                    </text>
                </g>
                <g id="shape17">
                    <path d="M146.5,59.7C146.5,58.1,147.8,56.7,149.5,56.7C151.2,56.7,152.5,58.1,152.5,59.7C152.5,61.4,151.2,62.7,149.5,62.7C147.8,62.7,146.5,61.4,146.5,59.7z" stroke-width="1" fill-rule="nonzero" fill="#4155c6" stroke="#4155c6"/>
                    <text stroke-width="3" xml:space="preserve" stroke="#4155c6" style="fill:#ffffff;font-family:Arial;font-size:10.00pt">
                        <tspan x="143.3" y="52.2">80</tspan>
                    </text>
                    <text xml:space="preserve" style="fill:#ffffff;font-family:Arial;font-size:10.00pt">
                        <tspan x="143.3" y="52.2">80</tspan>
                    </text>
                </g>
                <g id="shape18">
                    <path d="M179.7,44.8C179.7,43.1,181.1,41.8,182.7,41.8C184.4,41.8,185.7,43.1,185.7,44.8C185.7,46.5,184.4,47.8,182.7,47.8C181.1,47.8,179.7,46.5,179.7,44.8z" stroke-width="1" fill-rule="nonzero" fill="#4155c6" stroke="#4155c6"/>
                    <text stroke-width="3" xml:space="preserve" stroke="#4155c6" style="fill:#ffffff;font-family:Arial;font-size:10.00pt">
                        <tspan x="176.5" y="37.3">90</tspan>
                    </text>
                    <text xml:space="preserve" style="fill:#ffffff;font-family:Arial;font-size:10.00pt">
                        <tspan x="176.5" y="37.3">90</tspan>
                    </text>
                </g>
                <g id="shape19">
                    <path d="M212.9,.0C212.9,-1.7,214.3,-3.0,215.9,-3.0C217.6,-3.0,218.9,-1.7,218.9,.0C218.9,1.7,217.6,3.0,215.9,3.0C214.3,3.0,212.9,1.7,212.9,.0z" stroke-width="1" fill-rule="nonzero" fill="#4155c6" stroke="#4155c6"/>
                    <text stroke-width="3" xml:space="preserve" stroke="#4155c6" style="fill:#ffffff;font-family:Arial;font-size:10.00pt">
                        <tspan x="206.1" y="-7.5">120</tspan>
                    </text>
                    <text xml:space="preserve" style="fill:#ffffff;font-family:Arial;font-size:10.00pt">
                        <tspan x="206.1" y="-7.5">120</tspan>
                    </text>
                </g>
                <g id="shape20">
                    <path d="M246.2,59.7C246.2,58.1,247.5,56.7,249.2,56.7C250.8,56.7,252.2,58.1,252.2,59.7C252.2,61.4,250.8,62.7,249.2,62.7C247.5,62.7,246.2,61.4,246.2,59.7z" stroke-width="1" fill-rule="nonzero" fill="#4155c6" stroke="#4155c6"/>
                    <text stroke-width="3" xml:space="preserve" stroke="#4155c6" style="fill:#ffffff;font-family:Arial;font-size:10.00pt">
                        <tspan x="242.9" y="52.2">80</tspan>
                    </text>
                    <text xml:space="preserve" style="fill:#ffffff;font-family:Arial;font-size:10.00pt">
                        <tspan x="242.9" y="52.2">80</tspan>
                    </text>
                </g>
            </g>
        </g>
    </g>
</svg>
