<svg height="804" width="1133" viewBox="0 0 1133 804" xmlns="http://www.w3.org/2000/svg" xmlns:xlink="http://www.w3.org/1999/xlink" xmlns:ev="http://www.w3.org/2001/xml-events"><defs/><g transform="translate(5.5,5.5)" id="page1"><rect height="794" width="1123" x="0" fill="#ffffff" y="0"/><g transform="translate(352.00,208.00)" id="chart1"><g transform="translate(0.00,335.00)" id="group2"><g transform="translate(117.19,5.50)" id="shape3"><path d="M15.0,7.0C15.0,10.9,11.9,14.0,8.0,14.0C4.1,14.0,1.0,10.9,1.0,7.0C1.0,3.1,4.1,.0,8.0,.0C11.9,.0,15.0,3.1,15.0,7.0z" stroke-width="1" fill-rule="nonzero" fill="#4155c6" stroke="#4155c6"/><text xml:space="preserve" style="fill:#000000;font-family:Arial;font-size:10.00pt"><tspan x="26.0" y="12.5">Series 1</tspan></text></g></g><g id="group4"><g transform="translate(29.44,273.02)" id="shape5"><path d="M.0,5.0L281.6,5.0M.0,5.0L.0,10.0M56.3,5.0L56.3,10.0M112.6,5.0L112.6,10.0M168.9,5.0L168.9,10.0M225.3,5.0L225.3,10.0" stroke-width="1" stroke="#000000" fill="none"/><rect transform="matrix(0.71,-0.71,0.71,0.71,-24.8,12.1)" height="15.0" width="63.5" x="-28.6" fill="#ffffff" y="28.5"/><text transform="matrix(0.71,-0.71,0.71,0.71,-24.8,12.1)" xml:space="preserve" style="fill:#000000;font-family:Arial;font-size:10.00pt"><tspan x="-28.6" y="41.5">Category 1</tspan></text><rect transform="matrix(0.71,-0.71,0.71,0.71,-8.3,51.9)" height="15.0" width="63.5" x="27.7" fill="#ffffff" y="28.5"/><text transform="matrix(0.71,-0.71,0.71,0.71,-8.3,51.9)" xml:space="preserve" style="fill:#000000;font-family:Arial;font-size:10.00pt"><tspan x="27.7" y="41.5">Category 2</tspan></text><rect transform="matrix(0.71,-0.71,0.71,0.71,8.2,91.7)" height="15.0" width="63.5" x="84.0" fill="#ffffff" y="28.5"/><text transform="matrix(0.71,-0.71,0.71,0.71,8.2,91.7)" xml:space="preserve" style="fill:#000000;font-family:Arial;font-size:10.00pt"><tspan x="84.0" y="41.5">Category 3</tspan></text><rect transform="matrix(0.71,-0.71,0.71,0.71,24.7,131.5)" height="15.0" width="63.5" x="140.3" fill="#ffffff" y="28.5"/><text transform="matrix(0.71,-0.71,0.71,0.71,24.7,131.5)" xml:space="preserve" style="fill:#000000;font-family:Arial;font-size:10.00pt"><tspan x="140.3" y="41.5">Category 4</tspan></text><rect transform="matrix(0.71,-0.71,0.71,0.71,42.4,171.9)" height="15.0" width="59.9" x="199.7" fill="#ffffff" y="27.2"/><text transform="matrix(0.71,-0.71,0.71,0.71,42.4,171.9)" xml:space="preserve" style="fill:#000000;font-family:Arial;font-size:10.00pt"><tspan x="199.7" y="40.2">Category5</tspan></text><path d="M56.3,-261.5L56.3,5.0M112.6,-261.5L112.6,5.0M168.9,-261.5L168.9,5.0M225.3,-261.5L225.3,5.0M281.6,-261.5L281.6,5.0" stroke-width="1" stroke="#dcdcdc" fill="none" id="shape6"/></g><g transform="translate(24.44,11.50)" id="shape7"><path d="M5.0,266.5L5.0,.0M5.0,266.5L.0,266.5M5.0,228.4L.0,228.4M5.0,190.4L.0,190.4M5.0,152.3L.0,152.3M5.0,114.2L.0,114.2M5.0,76.1L.0,76.1M5.0,38.1L.0,38.1M5.0,.0L.0,.0" stroke-width="1" stroke="#000000" fill="none"/><rect height="15.0" width="7.2" x="-16.2" fill="#ffffff" y="259.0"/><text xml:space="preserve" style="fill:#000000;font-family:Arial;font-size:10.00pt"><tspan x="-16.2" y="272.0">0</tspan></text><rect height="15.0" width="14.4" x="-23.4" fill="#ffffff" y="220.9"/><text xml:space="preserve" style="fill:#000000;font-family:Arial;font-size:10.00pt"><tspan x="-23.4" y="233.9">10</tspan></text><rect height="15.0" width="14.4" x="-23.4" fill="#ffffff" y="182.9"/><text xml:space="preserve" style="fill:#000000;font-family:Arial;font-size:10.00pt"><tspan x="-23.4" y="195.9">20</tspan></text><rect height="15.0" width="14.4" x="-23.4" fill="#ffffff" y="144.8"/><text xml:space="preserve" style="fill:#000000;font-family:Arial;font-size:10.00pt"><tspan x="-23.4" y="157.8">30</tspan></text><rect height="15.0" width="14.4" x="-23.4" fill="#ffffff" y="106.7"/><text xml:space="preserve" style="fill:#000000;font-family:Arial;font-size:10.00pt"><tspan x="-23.4" y="119.7">40</tspan></text><rect height="15.0" width="14.4" x="-23.4" fill="#ffffff" y="68.6"/><text xml:space="preserve" style="fill:#000000;font-family:Arial;font-size:10.00pt"><tspan x="-23.4" y="81.6">50</tspan></text><rect height="15.0" width="14.4" x="-23.4" fill="#ffffff" y="30.6"/><text xml:space="preserve" style="fill:#000000;font-family:Arial;font-size:10.00pt"><tspan x="-23.4" y="43.6">60</tspan></text><rect height="15.0" width="14.4" x="-23.4" fill="#ffffff" y="-7.5"/><text xml:space="preserve" style="fill:#000000;font-family:Arial;font-size:10.00pt"><tspan x="-23.4" y="5.5">70</tspan></text><path d="M5.0,228.4L286.6,228.4M5.0,190.4L286.6,190.4M5.0,152.3L286.6,152.3M5.0,114.2L286.6,114.2M5.0,76.1L286.6,76.1M5.0,38.1L286.6,38.1M5.0,.0L286.6,.0" stroke-width="1" stroke="#dcdcdc" fill="none" id="shape8"/></g></g><g transform="translate(29.44,11.50)" id="group9"><g transform="translate(9.57,0.00)" id="group10"><g transform="translate(0.00,57.11)" id="shape11"><path d="M.0,.0L.0,208.4L37.2,208.4L37.2,.0L.0,.0z" stroke-width="1" fill-rule="nonzero" fill="#4155c6" stroke="#4155c6"/><text stroke-width="3" xml:space="preserve" stroke="#4155c6" style="fill:#ffffff;font-family:Arial;font-size:10.00pt"><tspan x="12.4" y="109.7">55</tspan></text><text xml:space="preserve" style="fill:#ffffff;font-family:Arial;font-size:10.00pt"><tspan x="12.4" y="109.7">55</tspan></text></g></g><g transform="translate(65.89,0.00)" id="group12"><g transform="translate(0.00,133.26)" id="shape13"><path d="M.0,.0L.0,132.3L37.2,132.3L37.2,.0L.0,.0z" stroke-width="1" fill-rule="nonzero" fill="#4155c6" stroke="#4155c6"/><text stroke-width="3" xml:space="preserve" stroke="#4155c6" style="fill:#ffffff;font-family:Arial;font-size:10.00pt"><tspan x="12.4" y="71.6">35</tspan></text><text xml:space="preserve" style="fill:#ffffff;font-family:Arial;font-size:10.00pt"><tspan x="12.4" y="71.6">35</tspan></text></g></g><g transform="translate(122.20,0.00)" id="group14"><g transform="translate(0.00,171.33)" id="shape15"><path d="M.0,.0L.0,94.2L37.2,94.2L37.2,.0L.0,.0z" stroke-width="1" fill-rule="nonzero" fill="#4155c6" stroke="#4155c6"/><text stroke-width="3" xml:space="preserve" stroke="#4155c6" style="fill:#ffffff;font-family:Arial;font-size:10.00pt"><tspan x="12.4" y="52.6">25</tspan></text><text xml:space="preserve" style="fill:#ffffff;font-family:Arial;font-size:10.00pt"><tspan x="12.4" y="52.6">25</tspan></text></g></g><g transform="translate(178.51,0.00)" id="group16"><g transform="translate(0.00,209.41)" id="shape17"><path d="M.0,.0L.0,56.1L37.2,56.1L37.2,.0L.0,.0z" stroke-width="1" fill-rule="nonzero" fill="#4155c6" stroke="#4155c6"/><text stroke-width="3" xml:space="preserve" stroke="#4155c6" style="fill:#ffffff;font-family:Arial;font-size:10.00pt"><tspan x="12.4" y="33.6">15</tspan></text><text xml:space="preserve" style="fill:#ffffff;font-family:Arial;font-size:10.00pt"><tspan x="12.4" y="33.6">15</tspan></text></g></g><g transform="translate(234.82,0.00)" id="group18"><g transform="translate(0.00,182.75)" id="shape19"><path d="M.0,.0L.0,82.8L37.2,82.8L37.2,.0L.0,.0z" stroke-width="1" fill-rule="nonzero" fill="#4155c6" stroke="#4155c6"/><text stroke-width="3" xml:space="preserve" stroke="#4155c6" style="fill:#ffffff;font-family:Arial;font-size:10.00pt"><tspan x="12.4" y="46.9">22</tspan></text><text xml:space="preserve" style="fill:#ffffff;font-family:Arial;font-size:10.00pt"><tspan x="12.4" y="46.9">22</tspan></text></g></g></g></g></g></svg>