<svg height="269" width="233" viewBox="0 0 233 268.884" xmlns="http://www.w3.org/2000/svg" xmlns:xlink="http://www.w3.org/1999/xlink">
    <defs/>
    <g transform="translate(1.00,1.00)" id="chart1">
        <g id="group2"/>
        <g id="group3">
            <g transform="translate(0.00,17.82)" id="shape4">
                <path d="M115.6,.0C179.5,.0,231.2,51.8,231.2,115.6C231.2,124.5,230.2,133.1,228.3,141.3L115.6,115.6L115.6,.0z" stroke-width="1" fill-rule="nonzero" fill="#4155c6" stroke="#4155c6"/>
                <text xml:space="preserve" style="fill:#ffffff;font-family:Arial;font-size:10.00pt">
                    <tspan x="151.0" y="85.1">220</tspan>
                </text>
            </g>
            <g transform="translate(0.00,17.82)" id="shape5">
                <path d="M228.3,141.3C216.6,192.9,170.6,231.2,115.6,231.2C110.8,231.2,106.1,231.0,101.5,230.4L115.6,115.6L228.3,141.3z" stroke-width="1" fill-rule="nonzero" fill="#ff7e79" stroke="#ff7e79"/>
                <text xml:space="preserve" style="fill:#ffffff;font-family:Arial;font-size:10.00pt">
                    <tspan x="139.0" y="168.4">180</tspan>
                </text>
            </g>
            <g transform="translate(0.00,17.82)" id="shape6">
                <path d="M101.5,230.4C52.9,224.4,13.6,188.3,2.9,141.3L115.6,115.6L101.5,230.4z" stroke-width="1" fill-rule="nonzero" fill="#ffcc53" stroke="#ffcc53"/>
                <text xml:space="preserve" style="fill:#ffffff;font-family:Arial;font-size:10.00pt">
                    <tspan x="67.1" y="164.0">150</tspan>
                </text>
            </g>
            <g transform="translate(0.00,17.82)" id="shape7">
                <path d="M2.9,141.3C1.0,133.1,.0,124.5,.0,115.6C.0,85.0,11.9,57.1,31.4,36.4L115.6,115.6L2.9,141.3z" stroke-width="1" fill-rule="nonzero" fill="#8dc0ff" stroke="#8dc0ff"/>
                <text xml:space="preserve" style="fill:#ffffff;font-family:Arial;font-size:10.00pt">
                    <tspan x="50.0" y="106.0">120</tspan>
                </text>
            </g>
            <g transform="translate(0.00,17.82)" id="shape8">
                <path d="M31.4,36.4C52.5,14.0,82.4,.0,115.6,.0L115.6,115.6L31.4,36.4z" stroke-width="1" fill-rule="nonzero" fill="#7991ff" stroke="#7991ff"/>
                <text xml:space="preserve" style="fill:#ffffff;font-family:Arial;font-size:10.00pt">
                    <tspan x="82.9" y="68.1">100</tspan>
                </text>
            </g>
        </g>
    </g>
</svg>
