<svg height="804" width="1133" xmlns="http://www.w3.org/2000/svg"><path fill="#fff" d="M5.5 5.5h1123v794H5.5z"/><path d="M434.5 307.5c33.1 0 60 26.9 60 60 0 4.6-.5 9.1-1.5 13.4l-58.5-13.4v-60z" fill="#4155c6" stroke="#4155c6"/><text xml:space="preserve" style="fill:#fff;font-family:Arial;font-size:10pt" transform="translate(374.5 307.5)"><tspan x="73.6" y="46.8">220</tspan></text><path d="M493 380.9c-6.1 26.7-30 46.6-58.5 46.6-2.5 0-4.9-.2-7.3-.4l7.3-59.6 58.5 13.4z" fill="#ff7e79" stroke="#ff7e79"/><text xml:space="preserve" style="fill:#fff;font-family:Arial;font-size:10pt" transform="translate(374.5 307.5)"><tspan x="67.4" y="90.1">180</tspan></text><path d="M427.2 427.1c-25.3-3.1-45.7-21.9-51.2-46.2l58.5-13.4-7.3 59.6z" fill="#ffcc53" stroke="#ffcc53"/><text xml:space="preserve" style="fill:#fff;font-family:Arial;font-size:10pt" transform="translate(374.5 307.5)"><tspan x="30.1" y="87.8">150</tspan></text><g><path d="M376 380.9c-1-4.3-1.5-8.8-1.5-13.4 0-15.9 6.2-30.4 16.3-41.1l43.7 41.1-58.5 13.4z" fill="#8dc0ff" stroke="#8dc0ff"/><text xml:space="preserve" style="fill:#fff;font-family:Arial;font-size:10pt" transform="translate(374.5 307.5)"><tspan x="21.2" y="57.6">120</tspan></text></g><g><path d="M390.8 326.4c10.9-11.6 26.5-18.9 43.7-18.9v60l-43.7-41.1z" fill="#7991ff" stroke="#7991ff"/><text xml:space="preserve" style="fill:#fff;font-family:Arial;font-size:10pt" transform="translate(374.5 307.5)"><tspan x="38.3" y="38">100</tspan></text></g></svg>