<svg height="276" width="309" viewBox="0 0 309 276" xmlns="http://www.w3.org/2000/svg" xmlns:xlink="http://www.w3.org/1999/xlink">
    <defs/>
    <g transform="translate(1.00,1.00)" id="chart1">
        <g id="group2"/>
        <g id="group3">
            <g transform="translate(13.61,241.00)" id="shape4">
                <path d="M.0,5.0L276.2,5.0" stroke-width="1" stroke="#000000" fill="none"/>
                <text xml:space="preserve" style="fill:#000000;font-family:Arial;font-size:10.00pt">
                    <tspan x="-2.6" y="27.0">0</tspan>
                </text>
                <text xml:space="preserve" style="fill:#000000;font-family:Arial;font-size:10.00pt">
                    <tspan x="62.8" y="27.0">20</tspan>
                </text>
                <text xml:space="preserve" style="fill:#000000;font-family:Arial;font-size:10.00pt">
                    <tspan x="131.9" y="27.0">40</tspan>
                </text>
                <text xml:space="preserve" style="fill:#000000;font-family:Arial;font-size:10.00pt">
                    <tspan x="200.9" y="27.0">60</tspan>
                </text>
                <text xml:space="preserve" style="fill:#000000;font-family:Arial;font-size:10.00pt">
                    <tspan x="270.0" y="27.0">80</tspan>
                </text>
            </g>
            <g transform="translate(8.61,11.50)" id="shape6">
                <path d="M5.0,234.5L5.0,.0M5.0,234.5L.0,234.5M5.0,187.6L.0,187.6M5.0,140.7L.0,140.7M5.0,93.8L.0,93.8M5.0,46.9L.0,46.9M5.0,-0.0L.0,-0.0" stroke-width="1" stroke="#000000" fill="none"/>
            </g>
        </g>
        <g transform="translate(13.61,11.50)" id="group8">
            <g transform="translate(0.00,193.46)" id="group9">
                <g id="shape10">
                    <path d="M.0,.0L.0,35.2L69.0,35.2L69.0,.0L.0,.0z" stroke-width="1" fill-rule="nonzero" fill="#ffcc53" stroke="#ffcc53"/>
                    <text stroke-width="3" xml:space="preserve" stroke="#ffcc53" style="fill:#ffffff;font-family:Arial;font-size:10.00pt">
                        <tspan x="28.3" y="23.1">20</tspan>
                    </text>
                    <text xml:space="preserve" style="fill:#ffffff;font-family:Arial;font-size:10.00pt">
                        <tspan x="28.3" y="23.1">20</tspan>
                    </text>
                </g>
            </g>
            <g transform="translate(0.00,146.56)" id="group11">
                <g id="shape12">
                    <path d="M.0,.0L.0,35.2L207.1,35.2L207.1,.0L.0,.0z" stroke-width="1" fill-rule="nonzero" fill="#ffcc53" stroke="#ffcc53"/>
                    <text stroke-width="3" xml:space="preserve" stroke="#ffcc53" style="fill:#ffffff;font-family:Arial;font-size:10.00pt">
                        <tspan x="97.3" y="23.1">60</tspan>
                    </text>
                    <text xml:space="preserve" style="fill:#ffffff;font-family:Arial;font-size:10.00pt">
                        <tspan x="97.3" y="23.1">60</tspan>
                    </text>
                </g>
            </g>
            <g transform="translate(0.00,99.66)" id="group13">
                <g id="shape14">
                    <path d="M.0,.0L.0,35.2L241.7,35.2L241.7,.0L.0,.0z" stroke-width="1" fill-rule="nonzero" fill="#ffcc53" stroke="#ffcc53"/>
                    <text stroke-width="3" xml:space="preserve" stroke="#ffcc53" style="fill:#ffffff;font-family:Arial;font-size:10.00pt">
                        <tspan x="114.6" y="23.1">70</tspan>
                    </text>
                    <text xml:space="preserve" style="fill:#ffffff;font-family:Arial;font-size:10.00pt">
                        <tspan x="114.6" y="23.1">70</tspan>
                    </text>
                </g>
            </g>
            <g transform="translate(0.00,52.76)" id="group15">
                <g id="shape16">
                    <path d="M.0,.0L.0,35.2L103.6,35.2L103.6,.0L.0,.0z" stroke-width="1" fill-rule="nonzero" fill="#ffcc53" stroke="#ffcc53"/>
                    <text stroke-width="3" xml:space="preserve" stroke="#ffcc53" style="fill:#ffffff;font-family:Arial;font-size:10.00pt">
                        <tspan x="45.6" y="23.1">30</tspan>
                    </text>
                    <text xml:space="preserve" style="fill:#ffffff;font-family:Arial;font-size:10.00pt">
                        <tspan x="45.6" y="23.1">30</tspan>
                    </text>
                </g>
            </g>
            <g transform="translate(0.00,5.86)" id="group17">
                <g id="shape18">
                    <path d="M.0,.0L.0,35.2L172.6,35.2L172.6,.0L.0,.0z" stroke-width="1" fill-rule="nonzero" fill="#ffcc53" stroke="#ffcc53"/>
                    <text stroke-width="3" xml:space="preserve" stroke="#ffcc53" style="fill:#ffffff;font-family:Arial;font-size:10.00pt">
                        <tspan x="80.1" y="23.1">50</tspan>
                    </text>
                    <text xml:space="preserve" style="fill:#ffffff;font-family:Arial;font-size:10.00pt">
                        <tspan x="80.1" y="23.1">50</tspan>
                    </text>
                </g>
            </g>
        </g>
    </g>
</svg>
